<?xml version="1.0" standalone="no"?><!DOCTYPE svg PUBLIC "-//W3C//DTD SVG 1.1//EN" "http://www.w3.org/Graphics/SVG/1.1/DTD/svg11.dtd"><svg t="1574807963620" class="icon" viewBox="0 0 1024 1024" version="1.1" xmlns="http://www.w3.org/2000/svg" p-id="3033" width="128" height="128" xmlns:xlink="http://www.w3.org/1999/xlink"><defs><style type="text/css"></style></defs><path d="M512 0C229.205333 0 0 229.205333 0 512s229.205333 512 512 512 512-229.205333 512-512S794.794667 0 512 0" fill="#E0EFFF" p-id="3034"></path><path d="M512 192a320 320 0 0 0-238.336 533.461333 415.786667 415.786667 0 0 1-65.152 90.026667s84.906667 0 139.008-29.013333A320 320 0 1 0 512 192" fill="#88C4FF" p-id="3035"></path><path d="M512 565.333333a42.666667 42.666667 0 0 1-42.666667-42.666666v-170.666667a42.666667 42.666667 0 0 1 85.333334 0v170.666667a42.666667 42.666667 0 0 1-42.666667 42.666666z m0 42.666667a48 48 0 1 1 0 96 48 48 0 0 1 0-96z" fill="#0081FF" p-id="3036"></path></svg>