<?xml version="1.0" standalone="no"?><!DOCTYPE svg PUBLIC "-//W3C//DTD SVG 1.1//EN" "http://www.w3.org/Graphics/SVG/1.1/DTD/svg11.dtd"><svg t="1574808047875" class="icon" viewBox="0 0 1024 1024" version="1.1" xmlns="http://www.w3.org/2000/svg" p-id="3519" width="128" height="128" xmlns:xlink="http://www.w3.org/1999/xlink"><defs><style type="text/css"></style></defs><path d="M511.5 918.5c-224.8 0-407-182.2-407-407s182.2-407 407-407 407 182.2 407 407-182.2 407-407 407z m0-918.5C229 0 0 229 0 511.5S229 1023 511.5 1023 1023 794 1023 511.5 794 0 511.5 0z" fill="#F5D8D8" p-id="3520"></path><path d="M511.5 104.5c-224.8 0-407 182.2-407 407s182.2 407 407 407 407-182.2 407-407-182.2-407-407-407z m187.8 548.8c12.8 12.9 12.8 33.8-0.1 46.6-6.4 6.4-14.9 9.6-23.2 9.6-8.4 0-16.9-3.2-23.3-9.7L511.5 558.2 370.3 699.8c-6.4 6.5-15 9.7-23.3 9.7-8.4 0-16.8-3.2-23.2-9.6-12.9-12.8-12.9-33.7-0.1-46.6l141.4-141.8-141.4-142c-12.8-12.9-12.8-33.8 0.1-46.6 12.9-12.8 33.8-12.8 46.5 0.1l141.2 141.7 141.2-141.8c12.8-12.9 33.7-12.9 46.5-0.1 12.9 12.8 12.9 33.7 0.1 46.6L558 511.5l141.3 141.8z" fill="#D55E5E" p-id="3521"></path></svg>