<?xml version="1.0" standalone="no"?><!DOCTYPE svg PUBLIC "-//W3C//DTD SVG 1.1//EN" "http://www.w3.org/Graphics/SVG/1.1/DTD/svg11.dtd"><svg t="1574808023933" class="icon" viewBox="0 0 1024 1024" version="1.1" xmlns="http://www.w3.org/2000/svg" p-id="3299" width="128" height="128" xmlns:xlink="http://www.w3.org/1999/xlink"><defs><style type="text/css"></style></defs><path d="M512 512m-512 0a512 512 0 1 0 1024 0 512 512 0 1 0-1024 0Z" fill="#FFE0AB" p-id="3300"></path><path d="M265.44128 747.52c-36.08576 0-50.54464-25.4976-32.21504-57.11872l245.67808-441.4464c18.28864-31.5392 47.90272-31.60064 66.22208 0l245.68832 441.4464c18.28864 31.5392 3.74784 57.11872-32.21504 57.11872h-493.1584z" fill="#FAC167" p-id="3301"></path><path d="M481.28 399.36c0-16.96768 13.79328-30.72 30.72-30.72 16.96768 0 30.72 13.68064 30.72 30.72v133.12c0 16.96768-13.79328 30.72-30.72 30.72-16.96768 0-30.72-13.68064-30.72-30.72V399.36z m-10.24 235.52c0-22.6304 18.3808-40.96 40.96-40.96 22.6304 0 40.96 18.3808 40.96 40.96 0 22.6304-18.3808 40.96-40.96 40.96-22.6304 0-40.96-18.3808-40.96-40.96z" fill="#E09918" p-id="3302"></path></svg>