<?xml version="1.0" standalone="no"?><!DOCTYPE svg PUBLIC "-//W3C//DTD SVG 1.1//EN" "http://www.w3.org/Graphics/SVG/1.1/DTD/svg11.dtd"><svg t="1574808065079" class="icon" viewBox="0 0 1024 1024" version="1.1" xmlns="http://www.w3.org/2000/svg" p-id="3738" width="128" height="128" xmlns:xlink="http://www.w3.org/1999/xlink"><defs><style type="text/css"></style></defs><path d="M512 512m-512 0a512 512 0 1 0 1024 0 512 512 0 1 0-1024 0Z" fill="#9DE6D9" p-id="3739"></path><path d="M512 512m-409.6 0a409.6 409.6 0 1 0 819.2 0 409.6 409.6 0 1 0-819.2 0Z" fill="#3CCEB5" p-id="3740"></path><path d="M438.8352 598.528L318.464 472.064a35.328 35.328 0 0 0-51.712 0 39.7824 39.7824 0 0 0 0 54.272l146.2784 153.6a35.328 35.328 0 0 0 51.712 0l292.608-307.2a39.7824 39.7824 0 0 0 0-54.272 35.328 35.328 0 0 0-51.712 0l-266.752 280.064z" fill="#FFFFFF" p-id="3741"></path></svg>